<svg width="27" height="45" viewBox="0 0 27 45" fill="none" xmlns="http://www.w3.org/2000/svg">
<path d="M1.93668 44.266C1.76231 44.2655 1.59104 44.2201 1.43934 44.1341C1.32267 44.0695 1.21986 43.9825 1.13682 43.8782C1.05377 43.7738 0.99211 43.6541 0.955348 43.5259C0.918586 43.3977 0.907438 43.2635 0.922561 43.131C0.937684 42.9985 0.978785 42.8703 1.04349 42.7537L24.6828 0.732691C24.8174 0.498491 25.0395 0.327354 25.3003 0.256925C25.5611 0.186496 25.8392 0.222548 26.0734 0.357146C26.3076 0.491743 26.4787 0.71386 26.5491 0.974639C26.6196 1.23542 26.5835 1.51349 26.4489 1.74769L2.79943 43.7687C2.71048 43.9187 2.58436 44.0433 2.43324 44.1304C2.28212 44.2176 2.1111 44.2643 1.93668 44.266Z" fill="#093F68"/>
</svg>
