<svg width="43" height="41" viewBox="0 0 43 41" fill="none" xmlns="http://www.w3.org/2000/svg">
<path d="M1.31047 40.2904C1.1713 40.29 1.03369 40.2609 0.906227 40.205C0.778761 40.1491 0.664147 40.0676 0.569509 39.9656C0.387051 39.7688 0.289956 39.5078 0.299466 39.2396C0.308977 38.9714 0.424322 38.7178 0.620263 38.5344L40.7432 0.979456C40.9397 0.795058 41.2014 0.696279 41.4708 0.704844C41.7401 0.71341 41.995 0.828617 42.1794 1.02513C42.3638 1.22164 42.4626 1.48336 42.4541 1.7527C42.4455 2.02205 42.3303 2.27696 42.1338 2.46136L2.00066 40.0164C1.81347 40.1916 1.56689 40.2895 1.31047 40.2904Z" fill="#093F68"/>
</svg>
