<svg width="27" height="8" viewBox="0 0 27 8" fill="none" xmlns="http://www.w3.org/2000/svg">
<path d="M25.9176 7.05605C25.6757 7.05607 25.4417 6.96969 25.2579 6.81246C15.93 -1.04364 2.08544 3.42236 1.91289 3.46296C1.65847 3.54667 1.38128 3.52643 1.14173 3.40665C0.902169 3.28687 0.719658 3.07726 0.633978 2.82351C0.590985 2.6969 0.573432 2.56304 0.582326 2.42962C0.591221 2.29621 0.626396 2.16587 0.685815 2.04609C0.745234 1.92631 0.827726 1.81944 0.928569 1.73164C1.02941 1.64384 1.14661 1.57682 1.27343 1.53445C1.88243 1.3416 16.3259 -3.32738 26.5368 5.25952C26.6977 5.39287 26.8136 5.57264 26.8685 5.77429C26.9234 5.97595 26.9148 6.18965 26.8437 6.3862C26.7726 6.58275 26.6426 6.75257 26.4714 6.87246C26.3002 6.99236 26.0962 7.05646 25.8872 7.05605H25.9176Z" fill="#093F68"/>
</svg>
