<svg width="25" height="25" viewBox="0 0 25 25" fill="none" xmlns="http://www.w3.org/2000/svg">
<path d="M23.2706 24.5088C23.0132 24.5094 22.7653 24.4123 22.5768 24.237C22.3884 24.0618 22.2736 23.8215 22.2556 23.5648C22.2326 22.9316 22.076 22.3103 21.7962 21.7419C21.5163 21.1734 21.1194 20.6704 20.6316 20.266C18.9467 18.8755 15.9321 18.3173 12.3492 18.7334C12.1825 18.7522 12.0137 18.7293 11.858 18.6669C11.7023 18.6045 11.5645 18.5045 11.4569 18.3758C11.3493 18.2471 11.2753 18.0937 11.2415 17.9294C11.2076 17.7651 11.2151 17.5949 11.2631 17.4342C11.7494 15.825 11.8708 14.1276 11.6184 12.4656C11.366 10.8036 10.7462 9.21873 9.80405 7.82645C8.86193 6.43417 7.62122 5.26948 6.17222 4.41716C4.72322 3.56484 3.10241 3.04633 1.42776 2.8994C1.15856 2.87517 0.91001 2.74501 0.736792 2.53753C0.563574 2.33005 0.479878 2.06225 0.504105 1.79305C0.528333 1.52386 0.65851 1.27532 0.86599 1.1021C1.07347 0.928885 1.34126 0.845173 1.61045 0.8694C3.46308 1.03028 5.26147 1.57739 6.88981 2.47549C8.51816 3.37359 9.94036 4.60277 11.0648 6.08388C12.1893 7.56499 12.9911 9.26519 13.4185 11.075C13.846 12.8848 13.8898 14.764 13.5469 16.5918C16.0641 16.4598 19.5455 16.7237 21.9206 18.6928C22.6223 19.271 23.1951 19.9896 23.6024 20.8025C24.0097 21.6153 24.2424 22.5044 24.2856 23.4126C24.2952 23.5459 24.2784 23.6799 24.2362 23.8067C24.1939 23.9336 24.127 24.0508 24.0393 24.1518C23.9516 24.2527 23.8448 24.3353 23.725 24.3948C23.6053 24.4543 23.475 24.4896 23.3416 24.4986L23.2706 24.5088Z" fill="#093F68"/>
</svg>
