<svg width="12" height="13" viewBox="0 0 12 13" fill="none" xmlns="http://www.w3.org/2000/svg">
<path d="M10.172 12.5237C9.92416 12.5259 9.68414 12.4372 9.49716 12.2745C9.31019 12.1119 9.18919 11.8864 9.15698 11.6407C8.84696 9.53011 7.90537 7.5628 6.45604 5.99752C5.0067 4.43224 3.11751 3.3423 1.03698 2.87109C0.906207 2.84337 0.782199 2.79011 0.672073 2.71434C0.561947 2.63856 0.467882 2.54178 0.395262 2.42955C0.322642 2.31732 0.272899 2.19184 0.248903 2.06034C0.224908 1.92883 0.227136 1.7939 0.255439 1.66325C0.283154 1.53248 0.336417 1.40847 0.41219 1.29835C0.487963 1.18822 0.584747 1.09414 0.696977 1.02152C0.809208 0.9489 0.934683 0.899172 1.06619 0.875177C1.19769 0.851182 1.33263 0.853394 1.46328 0.881697C3.94482 1.45379 6.19586 2.76172 7.92176 4.63431C9.64766 6.50691 10.768 8.85692 11.1362 11.3768C11.1708 11.6432 11.0984 11.9125 10.9347 12.1256C10.7711 12.3387 10.5297 12.4782 10.2633 12.5136L10.172 12.5237Z" fill="#093F68"/>
</svg>
