<svg width="52" height="13" viewBox="0 0 52 13" fill="none" xmlns="http://www.w3.org/2000/svg">
<path d="M50.6562 12.0504C50.4873 12.0512 50.3208 12.0099 50.1719 11.9301C50.0231 11.8504 49.8964 11.7347 49.8036 11.5937C48.7776 9.88156 47.3956 8.40999 45.7512 7.2787C44.1068 6.1474 42.2384 5.38283 40.2727 5.03676C34.8932 4.12326 28.1435 6.30551 22.2159 10.873C22.0745 10.9846 21.906 11.0566 21.7276 11.0816C21.5492 11.1066 21.3674 11.0836 21.2009 11.0151C21.0372 10.9505 20.8932 10.8446 20.7829 10.7075C20.6725 10.5705 20.5997 10.4072 20.5716 10.2336C20.2073 8.39062 19.327 6.68907 18.0332 5.327C16.7394 3.96493 15.0853 2.99836 13.2636 2.53986C11.3887 2.10814 9.44139 2.09723 7.56177 2.50791C5.68216 2.91858 3.9169 3.74064 2.3929 4.91497C2.28504 4.99388 2.16265 5.05071 2.03277 5.0822C1.90288 5.1137 1.76805 5.11923 1.63602 5.09848C1.50399 5.07773 1.37735 5.03112 1.26339 4.96131C1.14942 4.89149 1.05037 4.79986 0.971909 4.69167C0.814654 4.47576 0.748835 4.20657 0.788736 3.94247C0.828637 3.67836 0.971032 3.44063 1.18505 3.28082C2.95552 1.92943 5.00263 0.985769 7.1801 0.51729C9.35756 0.0488112 11.6116 0.0670804 13.7812 0.570769C15.7153 1.07916 17.4953 2.05365 18.9657 3.40901C20.436 4.76437 21.552 6.45932 22.2159 8.34566C28.3059 4.01161 34.9744 2.07297 40.5975 3.02707C42.8425 3.41823 44.9774 4.28664 46.858 5.57364C48.7386 6.86065 50.3211 8.53626 51.4986 10.4873C51.5969 10.6405 51.6522 10.8174 51.6587 10.9993C51.6651 11.1813 51.6226 11.3616 51.5354 11.5215C51.4482 11.6813 51.3196 11.8147 51.1632 11.9078C51.0067 12.0008 50.8281 12.0501 50.646 12.0504H50.6562Z" fill="#093F68"/>
</svg>
