<svg width="9" height="15" viewBox="0 0 9 15" fill="none" xmlns="http://www.w3.org/2000/svg">
<path d="M7.36847 14.3808C7.29777 14.3908 7.22601 14.3908 7.15531 14.3808C6.89307 14.3225 6.66462 14.1626 6.52003 13.9362C6.37543 13.7098 6.32648 13.4353 6.38392 13.1729C7.91657 6.0679 1.21757 2.05864 0.933374 1.88609C0.712445 1.74565 0.554321 1.52527 0.492038 1.271C0.429755 1.01673 0.468123 0.748218 0.599135 0.521568C0.730147 0.294917 0.943676 0.127663 1.1951 0.0547228C1.44653 -0.0182177 1.71641 0.00880113 1.94837 0.130148C2.02957 0.180898 10.2105 5.0529 8.35302 13.6093C8.29862 13.8294 8.17211 14.0249 7.99368 14.1647C7.81524 14.3045 7.59515 14.3806 7.36847 14.3808V14.3808Z" fill="#093F68"/>
</svg>
