<svg width="6" height="4" viewBox="0 0 6 4" fill="none" xmlns="http://www.w3.org/2000/svg">
<path d="M1.86093 3.22271C1.59173 3.23886 1.32714 3.14741 1.12537 2.96848C0.923601 2.78955 0.801182 2.5378 0.78503 2.26861C0.768879 1.99941 0.860316 1.73483 1.03924 1.53306C1.21817 1.33129 1.46992 1.20886 1.73912 1.19271C2.398 1.07636 3.04156 0.885673 3.65747 0.624307C3.9008 0.532878 4.16994 0.538288 4.40939 0.639423C4.64885 0.740558 4.84037 0.929711 4.94449 1.16789C5.04861 1.40606 5.05741 1.6751 4.96902 1.91956C4.88064 2.16401 4.70184 2.36524 4.46949 2.48176C3.67572 2.82235 2.84437 3.06766 1.99287 3.21256L1.86093 3.22271Z" fill="white"/>
</svg>
