<svg width="39" height="31" viewBox="0 0 39 31" fill="none" xmlns="http://www.w3.org/2000/svg">
<path d="M38.2339 1.53871C34.7746 0.743533 31.1868 0.685039 27.7034 1.36702C24.22 2.04901 20.9191 3.45621 18.0151 5.49721C9.47896 11.3132 4.24155 19.961 0.323653 28.761C0.181729 29.0889 0.154864 29.4551 0.247407 29.8002C0.33995 30.1452 0.546462 30.4489 0.833398 30.6617C1.12033 30.8746 1.47083 30.9841 1.82791 30.9726C2.18499 30.961 2.52766 30.8291 2.80026 30.5982C5.78146 27.7878 9.54896 25.9536 13.5999 25.3405C21.5372 24.3864 24.8562 27.7156 24.8562 27.7156L38.2339 1.53871Z" fill="#F56132"/>
</svg>
