<svg width="25" height="46" viewBox="0 0 25 46" fill="none" xmlns="http://www.w3.org/2000/svg">
<path d="M21.2434 0.721756C23.0521 3.77523 24.1983 7.17503 24.6075 10.7003C25.0167 14.2256 24.6797 17.7976 23.6185 21.1842C20.675 31.0906 14.0166 38.7031 6.8304 45.1077C6.56329 45.3524 6.21994 45.4974 5.85832 45.5182C5.49669 45.5391 5.13895 45.4345 4.84549 45.2222C4.55202 45.0098 4.34083 44.7027 4.24755 44.3527C4.15428 44.0027 4.18464 43.6312 4.33351 43.301C6.10498 39.6107 6.70362 35.4663 6.04886 31.4255C4.54666 23.5694 0.375 21.4176 0.375 21.4176L21.2434 0.721756Z" fill="#F56132"/>
</svg>
