<svg width="6" height="14" viewBox="0 0 6 14" fill="none" xmlns="http://www.w3.org/2000/svg">
<path d="M1.75847 13.3754C1.53959 13.3748 1.32677 13.3035 1.15173 13.1721C0.976683 13.0407 0.848813 12.8563 0.787176 12.6462C0.72554 12.4362 0.733428 12.2119 0.809696 12.0067C0.885963 11.8016 1.0265 11.6266 1.21036 11.5078C2.25719 10.6153 3.03408 9.44818 3.45353 8.13801C4.64108 4.93061 2.18478 2.17996 2.08328 2.04801C1.90023 1.85015 1.80326 1.58768 1.81373 1.31834C1.8242 1.04899 1.94124 0.794836 2.1391 0.611784C2.33695 0.428731 2.59944 0.331775 2.86878 0.342244C3.13813 0.352713 3.39228 0.469751 3.57533 0.667609C3.71743 0.819859 6.98573 4.42311 5.35158 8.78761C4.79672 10.5146 3.73588 12.0352 2.30658 13.1521C2.15012 13.2793 1.9593 13.3571 1.75847 13.3754V13.3754Z" fill="white"/>
</svg>
