<svg width="254" height="24" viewBox="0 0 254 24" fill="none" xmlns="http://www.w3.org/2000/svg">
<path d="M3.23359 18.8C2.50026 18.8 1.93359 18.6 1.53359 18.2C1.13359 17.7833 0.933594 17.2083 0.933594 16.475V3.275C0.933594 2.525 1.13359 1.95 1.53359 1.55C1.95026 1.15 2.52526 0.95 3.25859 0.95H9.40859C11.4086 0.95 12.9503 1.44167 14.0336 2.425C15.1336 3.39167 15.6836 4.74167 15.6836 6.475C15.6836 7.59167 15.4336 8.56667 14.9336 9.4C14.4503 10.2167 13.7419 10.85 12.8086 11.3C11.8919 11.7333 10.7586 11.95 9.40859 11.95L9.60859 11.5H10.8086C11.5253 11.5 12.1586 11.675 12.7086 12.025C13.2586 12.3583 13.7169 12.875 14.0836 13.575L15.3336 15.825C15.6003 16.3083 15.7253 16.7833 15.7086 17.25C15.6919 17.7 15.5086 18.075 15.1586 18.375C14.8253 18.6583 14.3336 18.8 13.6836 18.8C13.0336 18.8 12.5003 18.6667 12.0836 18.4C11.6836 18.1333 11.3253 17.7167 11.0086 17.15L8.73359 12.975C8.53359 12.6083 8.27526 12.3583 7.95859 12.225C7.65859 12.075 7.30859 12 6.90859 12H5.53359V16.475C5.53359 17.2083 5.34193 17.7833 4.95859 18.2C4.57526 18.6 4.00026 18.8 3.23359 18.8ZM5.53359 8.75H8.58359C9.46693 8.75 10.1419 8.575 10.6086 8.225C11.0753 7.875 11.3086 7.33333 11.3086 6.6C11.3086 5.9 11.0753 5.375 10.6086 5.025C10.1419 4.65833 9.46693 4.475 8.58359 4.475H5.53359V8.75Z" fill="white"/>
<path d="M24.6432 18.85C23.1432 18.85 21.8432 18.5917 20.7432 18.075C19.6598 17.5417 18.8265 16.7917 18.2432 15.825C17.6598 14.8583 17.3682 13.7167 17.3682 12.4C17.3682 11.1333 17.6432 10.025 18.1932 9.075C18.7598 8.10833 19.5265 7.35833 20.4932 6.825C21.4765 6.275 22.5932 6 23.8432 6C24.7598 6 25.5932 6.15 26.3432 6.45C27.0932 6.73333 27.7348 7.15833 28.2682 7.725C28.8015 8.275 29.2015 8.94167 29.4682 9.725C29.7515 10.5083 29.8932 11.3833 29.8932 12.35C29.8932 12.6833 29.8015 12.9333 29.6182 13.1C29.4348 13.25 29.1432 13.325 28.7432 13.325H21.0932V11.225H26.6432L26.2432 11.55C26.2432 10.9333 26.1598 10.4333 25.9932 10.05C25.8265 9.66667 25.5765 9.375 25.2432 9.175C24.9265 8.975 24.5265 8.875 24.0432 8.875C23.5265 8.875 23.0765 9 22.6932 9.25C22.3265 9.48333 22.0432 9.83333 21.8432 10.3C21.6432 10.7667 21.5432 11.35 21.5432 12.05V12.275C21.5432 13.4583 21.8015 14.3083 22.3182 14.825C22.8515 15.325 23.6682 15.575 24.7682 15.575C25.1348 15.575 25.5515 15.5333 26.0182 15.45C26.5015 15.35 26.9598 15.2167 27.3932 15.05C27.8265 14.8833 28.2015 14.8583 28.5182 14.975C28.8348 15.075 29.0765 15.2583 29.2432 15.525C29.4265 15.775 29.5265 16.0667 29.5432 16.4C29.5598 16.7167 29.4848 17.0333 29.3182 17.35C29.1515 17.65 28.8765 17.8833 28.4932 18.05C27.9098 18.3167 27.2848 18.5167 26.6182 18.65C25.9682 18.7833 25.3098 18.85 24.6432 18.85Z" fill="white"/>
<path d="M36.6104 18.85C35.5604 18.85 34.627 18.5917 33.8104 18.075C33.0104 17.5583 32.377 16.8167 31.9104 15.85C31.4604 14.8833 31.2354 13.7417 31.2354 12.425C31.2354 11.075 31.4604 9.925 31.9104 8.975C32.377 8.025 33.0104 7.29167 33.8104 6.775C34.627 6.25833 35.5604 6 36.6104 6C37.527 6 38.352 6.21667 39.0854 6.65C39.8187 7.08333 40.3104 7.64167 40.5604 8.325H40.2854V2.975C40.2854 2.24167 40.477 1.68333 40.8604 1.3C41.2437 0.916666 41.7937 0.725 42.5104 0.725C43.2104 0.725 43.752 0.916666 44.1354 1.3C44.5354 1.68333 44.7354 2.24167 44.7354 2.975V16.55C44.7354 17.2833 44.5437 17.8417 44.1604 18.225C43.7937 18.6083 43.252 18.8 42.5354 18.8C41.8354 18.8 41.2937 18.6083 40.9104 18.225C40.527 17.8417 40.3354 17.2833 40.3354 16.55V15.125L40.6104 16.35C40.377 17.1 39.8854 17.7083 39.1354 18.175C38.402 18.625 37.5604 18.85 36.6104 18.85ZM38.0354 15.575C38.4854 15.575 38.8854 15.4667 39.2354 15.25C39.5854 15.0167 39.852 14.675 40.0354 14.225C40.2354 13.7583 40.3354 13.1583 40.3354 12.425C40.3354 11.3083 40.1187 10.5083 39.6854 10.025C39.252 9.525 38.702 9.275 38.0354 9.275C37.5854 9.275 37.1854 9.38333 36.8354 9.6C36.4854 9.81667 36.2104 10.1583 36.0104 10.625C35.8104 11.075 35.7104 11.675 35.7104 12.425C35.7104 13.525 35.927 14.325 36.3604 14.825C36.7937 15.325 37.352 15.575 38.0354 15.575Z" fill="white"/>
<path d="M55.4133 18.85C54.4633 18.85 53.6133 18.625 52.8633 18.175C52.1299 17.7083 51.6466 17.1 51.4133 16.35L51.6883 15.325V16.55C51.6883 17.2833 51.4966 17.8417 51.1133 18.225C50.7466 18.6083 50.2133 18.8 49.5133 18.8C48.7966 18.8 48.2466 18.6083 47.8633 18.225C47.4966 17.8417 47.3133 17.2833 47.3133 16.55V2.975C47.3133 2.24167 47.5049 1.68333 47.8883 1.3C48.2716 0.916666 48.8133 0.725 49.5133 0.725C50.2299 0.725 50.7799 0.916666 51.1633 1.3C51.5633 1.68333 51.7633 2.24167 51.7633 2.975V8.325H51.4633C51.7133 7.64167 52.2049 7.08333 52.9383 6.65C53.6716 6.21667 54.4966 6 55.4133 6C56.4799 6 57.4133 6.25833 58.2133 6.775C59.0299 7.29167 59.6633 8.025 60.1133 8.975C60.5633 9.925 60.7883 11.075 60.7883 12.425C60.7883 13.7417 60.5633 14.8833 60.1133 15.85C59.6633 16.8167 59.0299 17.5583 58.2133 18.075C57.4133 18.5917 56.4799 18.85 55.4133 18.85ZM54.0133 15.575C54.4633 15.575 54.8549 15.4667 55.1883 15.25C55.5383 15.0167 55.8133 14.675 56.0133 14.225C56.2133 13.7583 56.3133 13.1583 56.3133 12.425C56.3133 11.3083 56.0966 10.5083 55.6633 10.025C55.2299 9.525 54.68 9.275 54.0133 9.275C53.5633 9.275 53.1633 9.38333 52.8133 9.6C52.4633 9.81667 52.1883 10.1583 51.9883 10.625C51.7883 11.075 51.6883 11.675 51.6883 12.425C51.6883 13.525 51.9049 14.325 52.3383 14.825C52.7716 15.325 53.3299 15.575 54.0133 15.575Z" fill="white"/>
<path d="M69.5162 18.85C68.0162 18.85 66.7162 18.5917 65.6162 18.075C64.5329 17.5417 63.6995 16.7917 63.1162 15.825C62.5329 14.8583 62.2412 13.7167 62.2412 12.4C62.2412 11.1333 62.5162 10.025 63.0662 9.075C63.6329 8.10833 64.3995 7.35833 65.3662 6.825C66.3495 6.275 67.4662 6 68.7162 6C69.6329 6 70.4662 6.15 71.2162 6.45C71.9662 6.73333 72.6079 7.15833 73.1412 7.725C73.6745 8.275 74.0745 8.94167 74.3412 9.725C74.6245 10.5083 74.7662 11.3833 74.7662 12.35C74.7662 12.6833 74.6745 12.9333 74.4912 13.1C74.3079 13.25 74.0162 13.325 73.6162 13.325H65.9662V11.225H71.5162L71.1162 11.55C71.1162 10.9333 71.0329 10.4333 70.8662 10.05C70.6995 9.66667 70.4495 9.375 70.1162 9.175C69.7995 8.975 69.3995 8.875 68.9162 8.875C68.3995 8.875 67.9495 9 67.5662 9.25C67.1995 9.48333 66.9162 9.83333 66.7162 10.3C66.5162 10.7667 66.4162 11.35 66.4162 12.05V12.275C66.4162 13.4583 66.6745 14.3083 67.1912 14.825C67.7245 15.325 68.5412 15.575 69.6412 15.575C70.0079 15.575 70.4245 15.5333 70.8912 15.45C71.3745 15.35 71.8329 15.2167 72.2662 15.05C72.6995 14.8833 73.0745 14.8583 73.3912 14.975C73.7079 15.075 73.9495 15.2583 74.1162 15.525C74.2995 15.775 74.3995 16.0667 74.4162 16.4C74.4329 16.7167 74.3579 17.0333 74.1912 17.35C74.0245 17.65 73.7495 17.8833 73.3662 18.05C72.7829 18.3167 72.1579 18.5167 71.4912 18.65C70.8412 18.7833 70.1829 18.85 69.5162 18.85Z" fill="white"/>
<path d="M78.9584 18.8C78.2251 18.8 77.6584 18.6083 77.2584 18.225C76.8751 17.8417 76.6834 17.2833 76.6834 16.55V8.275C76.6834 7.55833 76.8667 7.00833 77.2334 6.625C77.6167 6.24167 78.1584 6.05 78.8584 6.05C79.5584 6.05 80.0917 6.24167 80.4584 6.625C80.8251 7.00833 81.0084 7.55833 81.0084 8.275V9.3H80.7584C80.9251 8.3 81.3501 7.50833 82.0334 6.925C82.7334 6.34167 83.6001 6.03333 84.6334 6C85.1167 5.98333 85.4751 6.10833 85.7084 6.375C85.9584 6.625 86.0917 7.1 86.1084 7.8C86.1084 8.4 85.9834 8.875 85.7334 9.225C85.4834 9.575 85.0084 9.78333 84.3084 9.85L83.7334 9.9C82.8501 9.98333 82.2084 10.2333 81.8084 10.65C81.4084 11.05 81.2084 11.65 81.2084 12.45V16.55C81.2084 17.2833 81.0167 17.8417 80.6334 18.225C80.2501 18.6083 79.6917 18.8 78.9584 18.8Z" fill="white"/>
<path d="M89.7982 18.8C89.0649 18.8 88.4982 18.6083 88.0982 18.225C87.7149 17.8417 87.5232 17.2833 87.5232 16.55V8.275C87.5232 7.55833 87.7066 7.00833 88.0732 6.625C88.4566 6.24167 88.9982 6.05 89.6982 6.05C90.3982 6.05 90.9316 6.24167 91.2982 6.625C91.6649 7.00833 91.8482 7.55833 91.8482 8.275V9.3H91.5982C91.7649 8.3 92.1899 7.50833 92.8732 6.925C93.5732 6.34167 94.4399 6.03333 95.4732 6C95.9566 5.98333 96.3149 6.10833 96.5482 6.375C96.7982 6.625 96.9316 7.1 96.9482 7.8C96.9482 8.4 96.8232 8.875 96.5732 9.225C96.3232 9.575 95.8482 9.78333 95.1482 9.85L94.5732 9.9C93.6899 9.98333 93.0482 10.2333 92.6482 10.65C92.2482 11.05 92.0482 11.65 92.0482 12.45V16.55C92.0482 17.2833 91.8566 17.8417 91.4732 18.225C91.0899 18.6083 90.5316 18.8 89.7982 18.8Z" fill="white"/>
<path d="M102.695 23.3C102.178 23.3 101.762 23.1667 101.445 22.9C101.128 22.6333 100.928 22.2833 100.845 21.85C100.778 21.4167 100.853 20.9583 101.07 20.475L102.745 16.85V18.65L98.4699 8.875C98.2533 8.375 98.1783 7.90833 98.2449 7.475C98.3283 7.04167 98.5533 6.7 98.9199 6.45C99.2866 6.18333 99.7866 6.05 100.42 6.05C100.953 6.05 101.378 6.175 101.695 6.425C102.028 6.65833 102.328 7.125 102.595 7.825L105.095 14.325H104.245L106.895 7.8C107.162 7.11667 107.462 6.65833 107.795 6.425C108.145 6.175 108.612 6.05 109.195 6.05C109.695 6.05 110.095 6.18333 110.395 6.45C110.695 6.7 110.878 7.04167 110.945 7.475C111.012 7.90833 110.937 8.375 110.72 8.875L105.045 21.625C104.745 22.2917 104.412 22.7333 104.045 22.95C103.695 23.1833 103.245 23.3 102.695 23.3Z" fill="white"/>
<path d="M122.399 18.8C121.665 18.8 121.099 18.6 120.699 18.2C120.299 17.7833 120.099 17.2083 120.099 16.475V3.05C120.099 2.28333 120.299 1.70833 120.699 1.325C121.099 0.924999 121.665 0.725 122.399 0.725C123.149 0.725 123.715 0.924999 124.099 1.325C124.499 1.70833 124.699 2.28333 124.699 3.05V8.5H124.749L130.824 1.8C131.14 1.46667 131.474 1.20833 131.824 1.025C132.19 0.825 132.599 0.725 133.049 0.725C133.749 0.725 134.249 0.908333 134.549 1.275C134.865 1.625 135.007 2.04167 134.974 2.525C134.957 2.99167 134.765 3.425 134.399 3.825L128.349 10.25V8.375L134.699 15.55C135.132 16.0333 135.349 16.5333 135.349 17.05C135.349 17.55 135.174 17.9667 134.824 18.3C134.49 18.6333 133.99 18.8 133.324 18.8C132.757 18.8 132.299 18.6917 131.949 18.475C131.615 18.2417 131.249 17.9 130.849 17.45L124.749 10.625H124.699V16.475C124.699 17.2083 124.507 17.7833 124.124 18.2C123.74 18.6 123.165 18.8 122.399 18.8Z" fill="white"/>
<path d="M139.796 18.8C139.096 18.8 138.555 18.6083 138.171 18.225C137.788 17.8417 137.596 17.2833 137.596 16.55V8.275C137.596 7.55833 137.78 7.00833 138.146 6.625C138.53 6.24167 139.071 6.05 139.771 6.05C140.471 6.05 141.005 6.24167 141.371 6.625C141.738 7.00833 141.921 7.55833 141.921 8.275V9.45L141.646 8.425C142.046 7.64167 142.613 7.04167 143.346 6.625C144.096 6.20833 144.946 6 145.896 6C146.88 6 147.688 6.19167 148.321 6.575C148.955 6.94167 149.43 7.525 149.746 8.325C150.063 9.10833 150.221 10.1 150.221 11.3V16.55C150.221 17.2833 150.03 17.8417 149.646 18.225C149.263 18.6083 148.713 18.8 147.996 18.8C147.28 18.8 146.73 18.6083 146.346 18.225C145.963 17.8417 145.771 17.2833 145.771 16.55V11.475C145.771 10.725 145.638 10.1917 145.371 9.875C145.121 9.55833 144.746 9.4 144.246 9.4C143.58 9.4 143.046 9.61667 142.646 10.05C142.246 10.4667 142.046 11.0333 142.046 11.75V16.55C142.046 18.05 141.296 18.8 139.796 18.8Z" fill="white"/>
<path d="M154.958 18.8C154.258 18.8 153.716 18.5917 153.333 18.175C152.949 17.7583 152.758 17.1583 152.758 16.375V8.475C152.758 7.69167 152.949 7.09167 153.333 6.675C153.716 6.25833 154.258 6.05 154.958 6.05C155.674 6.05 156.224 6.25833 156.608 6.675C157.008 7.09167 157.208 7.69167 157.208 8.475V16.375C157.208 17.1583 157.016 17.7583 156.633 18.175C156.249 18.5917 155.691 18.8 154.958 18.8ZM154.958 4.275C154.174 4.275 153.566 4.09167 153.133 3.725C152.716 3.35833 152.508 2.825 152.508 2.125C152.508 1.44167 152.716 0.916666 153.133 0.55C153.566 0.183333 154.174 0 154.958 0C155.774 0 156.391 0.183333 156.808 0.55C157.224 0.916666 157.433 1.44167 157.433 2.125C157.433 2.825 157.224 3.35833 156.808 3.725C156.391 4.09167 155.774 4.275 154.958 4.275Z" fill="white"/>
<path d="M165.889 23.35C164.972 23.35 164.114 23.2833 163.314 23.15C162.514 23.0333 161.822 22.8583 161.239 22.625C160.756 22.4583 160.414 22.2167 160.214 21.9C160.014 21.5833 159.922 21.25 159.939 20.9C159.956 20.55 160.047 20.2333 160.214 19.95C160.397 19.6667 160.639 19.4583 160.939 19.325C161.239 19.2083 161.572 19.2167 161.939 19.35C162.672 19.65 163.339 19.8417 163.939 19.925C164.539 20.025 165.047 20.075 165.464 20.075C166.481 20.075 167.239 19.8583 167.739 19.425C168.256 19.0083 168.514 18.35 168.514 17.45V15.875H168.714C168.464 16.575 167.956 17.15 167.189 17.6C166.422 18.0333 165.589 18.25 164.689 18.25C163.589 18.25 162.631 18 161.814 17.5C160.997 16.9833 160.356 16.2667 159.889 15.35C159.439 14.4333 159.214 13.3583 159.214 12.125C159.214 11.1917 159.347 10.35 159.614 9.6C159.881 8.85 160.247 8.20833 160.714 7.675C161.197 7.14167 161.772 6.73333 162.439 6.45C163.122 6.15 163.872 6 164.689 6C165.622 6 166.456 6.21667 167.189 6.65C167.939 7.08333 168.439 7.65 168.689 8.35L168.439 9.375V8.275C168.439 7.55833 168.631 7.00833 169.014 6.625C169.414 6.24167 169.964 6.05 170.664 6.05C171.364 6.05 171.897 6.24167 172.264 6.625C172.647 7.00833 172.839 7.55833 172.839 8.275V16.925C172.839 19.0583 172.239 20.6583 171.039 21.725C169.839 22.8083 168.122 23.35 165.889 23.35ZM166.064 14.975C166.564 14.975 166.989 14.8667 167.339 14.65C167.689 14.4167 167.964 14.0917 168.164 13.675C168.364 13.2417 168.464 12.725 168.464 12.125C168.464 11.225 168.247 10.525 167.814 10.025C167.381 9.525 166.797 9.275 166.064 9.275C165.597 9.275 165.181 9.39167 164.814 9.625C164.447 9.84167 164.164 10.1667 163.964 10.6C163.781 11.0167 163.689 11.525 163.689 12.125C163.689 13.025 163.906 13.725 164.339 14.225C164.772 14.725 165.347 14.975 166.064 14.975Z" fill="white"/>
<path d="M177.638 18.8C176.938 18.8 176.397 18.6083 176.013 18.225C175.63 17.8417 175.438 17.2833 175.438 16.55V2.975C175.438 2.24167 175.63 1.68333 176.013 1.3C176.397 0.916666 176.938 0.725 177.638 0.725C178.355 0.725 178.905 0.916666 179.288 1.3C179.688 1.68333 179.888 2.24167 179.888 2.975V8.425H179.488C179.888 7.64167 180.455 7.04167 181.188 6.625C181.938 6.20833 182.788 6 183.738 6C184.722 6 185.53 6.19167 186.163 6.575C186.797 6.94167 187.272 7.525 187.588 8.325C187.905 9.10833 188.063 10.1 188.063 11.3V16.55C188.063 17.2833 187.872 17.8417 187.488 18.225C187.105 18.6083 186.555 18.8 185.838 18.8C185.122 18.8 184.572 18.6083 184.188 18.225C183.805 17.8417 183.613 17.2833 183.613 16.55V11.475C183.613 10.725 183.48 10.1917 183.213 9.875C182.963 9.55833 182.588 9.4 182.088 9.4C181.422 9.4 180.888 9.61667 180.488 10.05C180.088 10.4667 179.888 11.0333 179.888 11.75V16.55C179.888 18.05 179.138 18.8 177.638 18.8Z" fill="white"/>
<path d="M197.049 18.85C195.799 18.85 194.766 18.6583 193.949 18.275C193.149 17.8917 192.549 17.3167 192.149 16.55C191.749 15.7667 191.549 14.7917 191.549 13.625V9.55H190.699C190.166 9.55 189.749 9.40833 189.449 9.125C189.166 8.84167 189.024 8.43333 189.024 7.9C189.024 7.36667 189.166 6.96667 189.449 6.7C189.749 6.41667 190.166 6.275 190.699 6.275H191.549V4.725C191.549 3.99167 191.741 3.43333 192.124 3.05C192.508 2.66667 193.058 2.475 193.774 2.475C194.491 2.475 195.041 2.66667 195.424 3.05C195.808 3.43333 195.999 3.99167 195.999 4.725V6.275H198.049C198.599 6.275 199.016 6.41667 199.299 6.7C199.599 6.96667 199.749 7.36667 199.749 7.9C199.749 8.43333 199.599 8.84167 199.299 9.125C199.016 9.40833 198.599 9.55 198.049 9.55H195.999V13.475C195.999 14.0917 196.141 14.55 196.424 14.85C196.724 15.1333 197.191 15.275 197.824 15.275C198.058 15.275 198.283 15.25 198.499 15.2C198.716 15.15 198.916 15.125 199.099 15.125C199.366 15.1083 199.583 15.1917 199.749 15.375C199.916 15.5417 199.999 15.9333 199.999 16.55C199.999 17.05 199.924 17.475 199.774 17.825C199.624 18.1583 199.358 18.4 198.974 18.55C198.741 18.6333 198.424 18.7 198.024 18.75C197.624 18.8167 197.299 18.85 197.049 18.85Z" fill="white"/>
<path d="M217.597 18.85C215.647 18.85 213.972 18.475 212.572 17.725C211.172 16.975 210.097 15.9167 209.347 14.55C208.614 13.1833 208.247 11.5833 208.247 9.75C208.247 8.38333 208.456 7.14167 208.872 6.025C209.306 4.90833 209.922 3.95 210.722 3.15C211.539 2.35 212.522 1.74167 213.672 1.325C214.839 0.891667 216.147 0.675 217.597 0.675C218.364 0.675 219.156 0.766667 219.972 0.95C220.806 1.11667 221.539 1.375 222.172 1.725C222.639 1.975 222.964 2.29167 223.147 2.675C223.331 3.05833 223.389 3.45 223.322 3.85C223.272 4.25 223.131 4.60833 222.897 4.925C222.664 5.24167 222.364 5.45833 221.997 5.575C221.631 5.675 221.231 5.61667 220.797 5.4C220.297 5.16667 219.797 4.99167 219.297 4.875C218.814 4.74167 218.306 4.675 217.772 4.675C216.739 4.675 215.872 4.875 215.172 5.275C214.489 5.65833 213.972 6.225 213.622 6.975C213.272 7.725 213.097 8.65 213.097 9.75C213.097 10.85 213.272 11.7833 213.622 12.55C213.972 13.3 214.489 13.875 215.172 14.275C215.872 14.6583 216.739 14.85 217.772 14.85C218.206 14.85 218.672 14.8 219.172 14.7C219.672 14.5833 220.164 14.4083 220.647 14.175C221.147 13.9583 221.589 13.9 221.972 14C222.372 14.1 222.689 14.3 222.922 14.6C223.172 14.9 223.331 15.25 223.397 15.65C223.464 16.0333 223.406 16.4167 223.222 16.8C223.056 17.1833 222.756 17.4917 222.322 17.725C221.739 18.075 221.014 18.35 220.147 18.55C219.297 18.75 218.447 18.85 217.597 18.85Z" fill="white"/>
<path d="M229.867 18.85C228.801 18.85 227.926 18.6583 227.242 18.275C226.559 17.875 226.042 17.2833 225.692 16.5C225.359 15.7167 225.192 14.725 225.192 13.525V8.275C225.192 7.54167 225.384 6.99167 225.767 6.625C226.151 6.24167 226.701 6.05 227.417 6.05C228.134 6.05 228.684 6.24167 229.067 6.625C229.451 6.99167 229.642 7.54167 229.642 8.275V13.65C229.642 14.25 229.767 14.7 230.017 15C230.267 15.3 230.659 15.45 231.192 15.45C231.792 15.45 232.284 15.2333 232.667 14.8C233.051 14.3667 233.242 13.7917 233.242 13.075V8.275C233.242 7.54167 233.434 6.99167 233.817 6.625C234.201 6.24167 234.751 6.05 235.467 6.05C236.184 6.05 236.734 6.24167 237.117 6.625C237.501 6.99167 237.692 7.54167 237.692 8.275V16.55C237.692 18.05 236.976 18.8 235.542 18.8C234.842 18.8 234.301 18.6083 233.917 18.225C233.534 17.8417 233.342 17.2833 233.342 16.55V15.1L233.742 16.325C233.376 17.1417 232.859 17.7667 232.192 18.2C231.542 18.6333 230.767 18.85 229.867 18.85Z" fill="white"/>
<path d="M242.482 23.3C241.782 23.3 241.24 23.1083 240.857 22.725C240.474 22.3417 240.282 21.7833 240.282 21.05V8.275C240.282 7.55833 240.465 7.00833 240.832 6.625C241.215 6.24167 241.757 6.05 242.457 6.05C243.174 6.05 243.715 6.24167 244.082 6.625C244.465 7.00833 244.657 7.55833 244.657 8.275V9.725L244.382 8.5C244.615 7.75 245.099 7.15 245.832 6.7C246.582 6.23333 247.432 6 248.382 6C249.449 6 250.382 6.25833 251.182 6.775C251.999 7.29167 252.632 8.025 253.082 8.975C253.532 9.925 253.757 11.075 253.757 12.425C253.757 13.7417 253.532 14.8833 253.082 15.85C252.632 16.8167 251.999 17.5583 251.182 18.075C250.382 18.5917 249.449 18.85 248.382 18.85C247.465 18.85 246.64 18.6333 245.907 18.2C245.174 17.7667 244.682 17.2 244.432 16.5H244.732V21.05C244.732 21.7833 244.532 22.3417 244.132 22.725C243.749 23.1083 243.199 23.3 242.482 23.3ZM246.982 15.575C247.432 15.575 247.824 15.4667 248.157 15.25C248.507 15.0167 248.782 14.675 248.982 14.225C249.182 13.7583 249.282 13.1583 249.282 12.425C249.282 11.3083 249.065 10.5083 248.632 10.025C248.199 9.525 247.649 9.275 246.982 9.275C246.532 9.275 246.132 9.38333 245.782 9.6C245.432 9.81667 245.157 10.1583 244.957 10.625C244.757 11.075 244.657 11.675 244.657 12.425C244.657 13.525 244.874 14.325 245.307 14.825C245.74 15.325 246.299 15.575 246.982 15.575Z" fill="white"/>
</svg>
